<svg xmlns="http://www.w3.org/2000/svg" width="1600" height="500" viewBox="0 0 1600 500"><defs><linearGradient id="c" x1="0" y1="0" x2="1" y2="1"><stop offset="0" stop-color="#fff"/><stop offset=".32" stop-color="#888"/><stop offset=".52" stop-color="#f7f7f7"/><stop offset=".76" stop-color="#686868"/><stop offset="1" stop-color="#ddd"/></linearGradient><linearGradient id="i" gradientUnits="userSpaceOnUse" x1="0" y1="0" x2="24" y2="24"><stop offset="0" stop-color="#fff"/><stop offset=".32" stop-color="#888"/><stop offset=".52" stop-color="#f7f7f7"/><stop offset=".76" stop-color="#686868"/><stop offset="1" stop-color="#ddd"/></linearGradient><radialGradient id="p" cx="38%" cy="30%" r="72%"><stop offset="0" stop-color="#292929"/><stop offset=".55" stop-color="#111"/><stop offset="1" stop-color="#020202"/></radialGradient><filter id="s" x="-40%" y="-40%" width="180%" height="180%"><feDropShadow dx="0" dy="7" stdDeviation="7" flood-color="#000" flood-opacity=".85"/></filter></defs><g transform="translate(270 250.0) scale(0.8928571428571429) translate(-280 -280)" filter="url(#s)"><circle cx="280" cy="280" r="232" fill="#050505" stroke="#000" stroke-width="12"/><path d="M280 40a240 240 0 0 1 205 115M500 205a240 240 0 0 1-55 245M390 493a240 240 0 0 1-256-28M80 415a240 240 0 0 1-19-255M105 117a240 240 0 0 1 115-65" fill="none" stroke="url(#c)" stroke-width="14"/><path d="M158 155v250M158 280h142M300 155v250" fill="none" stroke="url(#c)" stroke-width="45"/><path d="M284 155l122 250M406 155L284 405" fill="none" stroke="#f3f3f3" stroke-width="36"/><path d="M270 151l25 51M345 306l25 51" stroke="#050505" stroke-width="12"/><circle cx="280" cy="280" r="199" fill="none" stroke="#4d4d4d" stroke-width="3"/></g><text x="520" y="235" font-family="DejaVu Sans" font-size="138" font-weight="900" letter-spacing="18" fill="url(#c)">HXCC</text><text x="526" y="326" font-family="DejaVu Sans" font-size="42" font-weight="700" letter-spacing="14" fill="#8e8e8e">LOOKISM COMBAT COLLECTIVE</text><path d="M526 365h862" stroke="url(#c)" stroke-width="4"/><path d="M526 382h630" stroke="#555" stroke-width="2"/></svg>